<svg id="_лой_1" data-name="—лой_1" xmlns="http://www.w3.org/2000/svg" viewBox="0 0 19.78 19.78"><defs><style>.cls-1{fill:#fff;}</style></defs><path class="cls-1" d="M-72,262.13v2.63c0,.16,0,.16-.16.16h-2c-.17,0-.17,0-.17-.17v-5.2c0-.2,0-.22-.22-.22h-.75c-.1,0-.14,0-.14-.14v-1.65c0-.1,0-.14.14-.14h.8c.13,0,.17,0,.17-.18V255.8a2.18,2.18,0,0,1,.47-1.39,1.61,1.61,0,0,1,.71-.52,2.77,2.77,0,0,1,1.07-.18l1.62,0c.21,0,.24,0,.24.23v1.6c0,.14,0,.18-.18.18h-1a.52.52,0,0,0-.56.56v.94c0,.16,0,.21.21.21l.5,0h.8c.2,0,.26.08.22.27s0,.42-.07.64l-.09.73v.09c0,.15-.07.21-.23.21h-1.17c-.16,0-.17,0-.17.18Z" transform="translate(82.63 -249.12)"/><path class="cls-1" d="M-62.85,268.9H-82.63V249.12h19.78Zm-18.79-1h17.8v-17.8h-17.8Z" transform="translate(82.63 -249.12)"/></svg>