<svg id="_лой_1" data-name="—лой_1" xmlns="http://www.w3.org/2000/svg" viewBox="0 0 19.78 19.78"><defs><style>.cls-1{fill:#fff;}</style></defs><path class="cls-1" d="M-77.62,252.36h4.8l.3,0a2.65,2.65,0,0,1,2.13,2c0,.15.06.3.09.44v4.8s0,.07,0,.11a5,5,0,0,1-.21.76,2.62,2.62,0,0,1-2.5,1.64c-1.46,0-2.92,0-4.38,0a2.7,2.7,0,0,1-1.55-.48,2.68,2.68,0,0,1-1.17-2.29v-4.3a2.56,2.56,0,0,1,0-.55,2.68,2.68,0,0,1,2-2.13C-77.92,252.4-77.77,252.39-77.62,252.36Zm6.44,4.91v-2.13a2.15,2.15,0,0,0-.09-.66,1.85,1.85,0,0,0-1.8-1.25h-4.29a2.25,2.25,0,0,0-.64.09,1.83,1.83,0,0,0-1.26,1.8v4.29a1.8,1.8,0,0,0,.1.65,1.83,1.83,0,0,0,1.78,1.24h4.32a1.83,1.83,0,0,0,1.55-.79,1.84,1.84,0,0,0,.33-1.12Z" transform="translate(85.11 -247.46)"/><path class="cls-1" d="M-72.69,257.27a2.54,2.54,0,0,1-2.53,2.54,2.55,2.55,0,0,1-2.53-2.54,2.55,2.55,0,0,1,2.53-2.53A2.54,2.54,0,0,1-72.69,257.27Zm-.87,0a1.67,1.67,0,0,0-1.66-1.66,1.67,1.67,0,0,0-1.66,1.66,1.66,1.66,0,0,0,1.66,1.66A1.66,1.66,0,0,0-73.56,257.27Z" transform="translate(85.11 -247.46)"/><path class="cls-1" d="M-72.57,254a.64.64,0,0,1,.63.64.65.65,0,0,1-.66.63.64.64,0,0,1-.62-.65A.64.64,0,0,1-72.57,254Z" transform="translate(85.11 -247.46)"/><path class="cls-1" d="M-65.33,267.24H-85.11V247.46h19.78Zm-18.79-1h17.8V248.45h-17.8Z" transform="translate(85.11 -247.46)"/></svg>