<svg id="_лой_1" data-name="—лой_1" xmlns="http://www.w3.org/2000/svg" viewBox="0 0 22.24 15.86"><defs><style>.cls-1{fill:#1a1a1a;}</style></defs><path class="cls-1" d="M182.61,227.74v-12c.61-1.55,1.21-1.95,2.91-1.95h16.93a2.34,2.34,0,0,1,2.4,2.11q0,5.7,0,11.4a2.34,2.34,0,0,1-2.4,2.34H185.18a2.33,2.33,0,0,1-1.87-.73A7.39,7.39,0,0,1,182.61,227.74ZM185,215.11l.16.18,8.22,8.2c.32.32.48.31.82,0l8.1-8.08c.07-.07.13-.16.22-.27Zm6.53,8.2-5.17,5.16h14.83L196,223.3l-1.82,1.84c-.35.35-.48.35-.84,0Zm12.13-7.54-6.7,6.7a.48.48,0,0,0,.08.11c1.89,1.89,3.78,3.77,5.66,5.67a.37.37,0,0,0,.58,0,1.27,1.27,0,0,0,.38-1V215.77Zm-13.23,6.67L184,215.93s0,.14,0,.24v11.27c0,.43.08.82.52,1Z" transform="translate(-182.61 -213.84)"/></svg>