<svg id="_лой_1" data-name="—лой_1" xmlns="http://www.w3.org/2000/svg" viewBox="0 0 19.78 19.78"><defs><style>.cls-1{fill:#fff;}</style></defs><path class="cls-1" d="M-111.37,298.59a.37.37,0,0,1,.31-.18h1.8a.58.58,0,0,1,.57.37q.48,1,1,2a2.19,2.19,0,0,0,.57.72.86.86,0,0,0,.19.11.25.25,0,0,0,.34-.13,1.78,1.78,0,0,0,.16-.68,5.05,5.05,0,0,0-.06-1.6.65.65,0,0,0-.56-.55c-.16,0-.17-.07-.06-.19a.77.77,0,0,1,.48-.26,6.56,6.56,0,0,1,2.12,0c.36.05.49.17.52.59s0,.63,0,.95,0,.86,0,1.28a1.11,1.11,0,0,0,.07.37.28.28,0,0,0,.49.12,3.56,3.56,0,0,0,.78-1,10.09,10.09,0,0,0,.87-1.7c.13-.32.18-.35.52-.35l2,0a.75.75,0,0,1,.3,0,.27.27,0,0,1,.22.35,2.08,2.08,0,0,1-.36.8c-.43.62-.88,1.22-1.31,1.83-.1.13-.2.27-.29.41a.52.52,0,0,0,.08.68l.88.87a5.35,5.35,0,0,1,.86,1,1.19,1.19,0,0,1,.11.26c.09.32-.07.49-.37.52s-.56,0-.84,0l-1.08,0a1.19,1.19,0,0,1-.81-.31,9.25,9.25,0,0,1-.7-.7l-.51-.51a.76.76,0,0,0-.16-.11.32.32,0,0,0-.4.05,1.17,1.17,0,0,0-.31.75c0,.13,0,.25,0,.37a.38.38,0,0,1-.38.42,4.49,4.49,0,0,1-3-.69A6.52,6.52,0,0,1-109,303a20.29,20.29,0,0,1-2.32-4.11.54.54,0,0,1-.05-.11Z" transform="translate(114.97 -291.35)"/><path class="cls-1" d="M-95.19,311.14H-115V291.35h19.78Zm-18.79-1h17.8V292.35H-114Z" transform="translate(114.97 -291.35)"/></svg>